<mxfile host="app.diagrams.net" modified="2022-06-09T12:30:05.728Z" agent="5.0 (Windows NT 10.0; Win64; x64) AppleWebKit/537.36 (KHTML, like Gecko) Chrome/102.0.5005.61 Safari/537.36" etag="MmSF5fZACLwzNvmoqlYc" version="19.0.3" type="github">
  <diagram id="6a731a19-8d31-9384-78a2-239565b7b9f0" name="Page-1">
    <mxGraphModel dx="2431" dy="1094" grid="0" gridSize="10" guides="1" tooltips="1" connect="1" arrows="1" fold="1" page="0" pageScale="1" pageWidth="1169" pageHeight="827" background="none" math="0" shadow="0">
      <root>
        <mxCell id="0" />
        <mxCell id="1" parent="0" />
        <mxCell id="1746" value="" style="edgeStyle=none;rounded=0;jumpStyle=none;html=1;shadow=0;labelBackgroundColor=none;startArrow=none;startFill=0;endArrow=classic;endFill=1;jettySize=auto;orthogonalLoop=1;strokeColor=#2F5B7C;strokeWidth=3;fontFamily=Helvetica;fontSize=16;fontColor=#23445D;spacing=5;" parent="1" source="1749" target="1771" edge="1">
          <mxGeometry relative="1" as="geometry" />
        </mxCell>
        <mxCell id="1748" value="" style="edgeStyle=none;rounded=0;jumpStyle=none;html=1;shadow=0;labelBackgroundColor=none;startArrow=none;startFill=0;endArrow=classic;endFill=1;jettySize=auto;orthogonalLoop=1;strokeColor=#2F5B7C;strokeWidth=3;fontFamily=Helvetica;fontSize=16;fontColor=#23445D;spacing=5;" parent="1" source="1749" target="1753" edge="1">
          <mxGeometry relative="1" as="geometry" />
        </mxCell>
        <mxCell id="1749" value="Яндекс.Маршруты" style="rounded=1;whiteSpace=wrap;html=1;shadow=0;labelBackgroundColor=none;strokeColor=none;strokeWidth=3;fillColor=#2F5B7C;fontFamily=Helvetica;fontSize=16;fontColor=#FFFFFF;align=center;fontStyle=1;spacing=5;arcSize=7;perimeterSpacing=2;" parent="1" vertex="1">
          <mxGeometry x="459" y="478" width="150" height="70" as="geometry" />
        </mxCell>
        <mxCell id="1753" value="Логика" style="rounded=1;whiteSpace=wrap;html=1;shadow=0;labelBackgroundColor=none;strokeColor=none;strokeWidth=3;fillColor=#e85642;fontFamily=Helvetica;fontSize=14;fontColor=#FFFFFF;align=center;spacing=5;fontStyle=1;arcSize=7;perimeterSpacing=2;" parent="1" vertex="1">
          <mxGeometry x="243" y="483" width="150" height="60" as="geometry" />
        </mxCell>
        <mxCell id="1771" value="Интерфейс" style="rounded=1;whiteSpace=wrap;html=1;shadow=0;labelBackgroundColor=none;strokeColor=none;strokeWidth=3;fillColor=#12aab5;fontFamily=Helvetica;fontSize=14;fontColor=#FFFFFF;align=center;spacing=5;fontStyle=1;arcSize=7;perimeterSpacing=2;" parent="1" vertex="1">
          <mxGeometry x="678" y="482.9999999999999" width="150" height="60" as="geometry" />
        </mxCell>
        <mxCell id="4v5FdddxPcpGSq2N_8CD-1781" value="Схема" style="rounded=1;whiteSpace=wrap;html=1;shadow=0;labelBackgroundColor=none;strokeColor=none;strokeWidth=3;fillColor=#12aab5;fontFamily=Helvetica;fontSize=14;fontColor=#FFFFFF;align=center;spacing=5;fontStyle=1;arcSize=7;perimeterSpacing=2;" vertex="1" parent="1">
          <mxGeometry x="867" y="389.9999999999999" width="150" height="60" as="geometry" />
        </mxCell>
        <mxCell id="4v5FdddxPcpGSq2N_8CD-1782" value="Маршрутная панель" style="rounded=1;whiteSpace=wrap;html=1;shadow=0;labelBackgroundColor=none;strokeColor=none;strokeWidth=3;fillColor=#12aab5;fontFamily=Helvetica;fontSize=14;fontColor=#FFFFFF;align=center;spacing=5;fontStyle=1;arcSize=7;perimeterSpacing=2;" vertex="1" parent="1">
          <mxGeometry x="867" y="576.9999999999999" width="150" height="60" as="geometry" />
        </mxCell>
        <mxCell id="4v5FdddxPcpGSq2N_8CD-1785" value="" style="edgeStyle=none;rounded=0;jumpStyle=none;html=1;shadow=0;labelBackgroundColor=none;startArrow=none;startFill=0;endArrow=classic;endFill=1;jettySize=auto;orthogonalLoop=1;strokeColor=#2F5B7C;strokeWidth=3;fontFamily=Helvetica;fontSize=16;fontColor=#23445D;spacing=5;entryX=0;entryY=0.5;entryDx=0;entryDy=0;exitX=1;exitY=0;exitDx=0;exitDy=0;" edge="1" parent="1" source="1771" target="4v5FdddxPcpGSq2N_8CD-1781">
          <mxGeometry relative="1" as="geometry">
            <mxPoint x="621" y="523" as="sourcePoint" />
            <mxPoint x="686" y="523" as="targetPoint" />
            <Array as="points" />
          </mxGeometry>
        </mxCell>
        <mxCell id="4v5FdddxPcpGSq2N_8CD-1786" value="" style="edgeStyle=none;rounded=0;jumpStyle=none;html=1;shadow=0;labelBackgroundColor=none;startArrow=none;startFill=0;endArrow=classic;endFill=1;jettySize=auto;orthogonalLoop=1;strokeColor=#2F5B7C;strokeWidth=3;fontFamily=Helvetica;fontSize=16;fontColor=#23445D;spacing=5;entryX=0;entryY=0.5;entryDx=0;entryDy=0;exitX=1;exitY=1;exitDx=0;exitDy=0;" edge="1" parent="1" source="1771" target="4v5FdddxPcpGSq2N_8CD-1782">
          <mxGeometry relative="1" as="geometry">
            <mxPoint x="621" y="522.9999999999998" as="sourcePoint" />
            <mxPoint x="686" y="522.9999999999998" as="targetPoint" />
          </mxGeometry>
        </mxCell>
        <mxCell id="4v5FdddxPcpGSq2N_8CD-1787" value="Карта города" style="rounded=1;whiteSpace=wrap;html=1;shadow=0;labelBackgroundColor=none;strokeColor=none;strokeWidth=3;fillColor=#12aab5;fontFamily=Helvetica;fontSize=14;fontColor=#FFFFFF;align=center;spacing=5;fontStyle=1;arcSize=7;perimeterSpacing=2;" vertex="1" parent="1">
          <mxGeometry x="1090" y="611.9999999999999" width="150" height="60" as="geometry" />
        </mxCell>
        <mxCell id="4v5FdddxPcpGSq2N_8CD-1788" value="Вид карты" style="rounded=1;whiteSpace=wrap;html=1;shadow=0;labelBackgroundColor=none;strokeColor=none;strokeWidth=3;fillColor=#12aab5;fontFamily=Helvetica;fontSize=14;fontColor=#FFFFFF;align=center;spacing=5;fontStyle=1;arcSize=7;perimeterSpacing=2;" vertex="1" parent="1">
          <mxGeometry x="1094" y="729.9999999999999" width="150" height="60" as="geometry" />
        </mxCell>
        <mxCell id="4v5FdddxPcpGSq2N_8CD-1789" value="" style="edgeStyle=none;rounded=0;jumpStyle=none;html=1;shadow=0;labelBackgroundColor=none;startArrow=none;startFill=0;endArrow=classic;endFill=1;jettySize=auto;orthogonalLoop=1;strokeColor=#2F5B7C;strokeWidth=3;fontFamily=Helvetica;fontSize=16;fontColor=#23445D;spacing=5;entryX=0;entryY=0.5;entryDx=0;entryDy=0;exitX=1;exitY=0.5;exitDx=0;exitDy=0;" edge="1" parent="1" source="4v5FdddxPcpGSq2N_8CD-1782" target="4v5FdddxPcpGSq2N_8CD-1787">
          <mxGeometry relative="1" as="geometry">
            <mxPoint x="801.1276595744685" y="555" as="sourcePoint" />
            <mxPoint x="875.0000000000005" y="617" as="targetPoint" />
          </mxGeometry>
        </mxCell>
        <mxCell id="4v5FdddxPcpGSq2N_8CD-1790" value="" style="edgeStyle=none;rounded=0;jumpStyle=none;html=1;shadow=0;labelBackgroundColor=none;startArrow=none;startFill=0;endArrow=classic;endFill=1;jettySize=auto;orthogonalLoop=1;strokeColor=#2F5B7C;strokeWidth=3;fontFamily=Helvetica;fontSize=16;fontColor=#23445D;spacing=5;entryX=0;entryY=0.5;entryDx=0;entryDy=0;exitX=0.5;exitY=1;exitDx=0;exitDy=0;" edge="1" parent="1" source="4v5FdddxPcpGSq2N_8CD-1782" target="4v5FdddxPcpGSq2N_8CD-1788">
          <mxGeometry relative="1" as="geometry">
            <mxPoint x="811.1276595744685" y="565" as="sourcePoint" />
            <mxPoint x="885.0000000000005" y="627" as="targetPoint" />
          </mxGeometry>
        </mxCell>
        <mxCell id="4v5FdddxPcpGSq2N_8CD-1791" value="Вид транспорта" style="rounded=1;whiteSpace=wrap;html=1;shadow=0;labelBackgroundColor=none;strokeColor=none;strokeWidth=3;fillColor=#12aab5;fontFamily=Helvetica;fontSize=14;fontColor=#FFFFFF;align=center;spacing=5;fontStyle=1;arcSize=7;perimeterSpacing=2;" vertex="1" parent="1">
          <mxGeometry x="1090" y="496.9999999999999" width="150" height="60" as="geometry" />
        </mxCell>
        <mxCell id="4v5FdddxPcpGSq2N_8CD-1792" value="Режим поездки" style="rounded=1;whiteSpace=wrap;html=1;shadow=0;labelBackgroundColor=none;strokeColor=none;strokeWidth=3;fillColor=#12aab5;fontFamily=Helvetica;fontSize=14;fontColor=#FFFFFF;align=center;spacing=5;fontStyle=1;arcSize=7;perimeterSpacing=2;" vertex="1" parent="1">
          <mxGeometry x="1090" y="387.9999999999999" width="150" height="60" as="geometry" />
        </mxCell>
        <mxCell id="4v5FdddxPcpGSq2N_8CD-1793" value="Куда" style="rounded=1;whiteSpace=wrap;html=1;shadow=0;labelBackgroundColor=none;strokeColor=none;strokeWidth=3;fillColor=#12aab5;fontFamily=Helvetica;fontSize=14;fontColor=#FFFFFF;align=center;spacing=5;fontStyle=1;arcSize=7;perimeterSpacing=2;" vertex="1" parent="1">
          <mxGeometry x="1094" y="278.9999999999999" width="150" height="60" as="geometry" />
        </mxCell>
        <mxCell id="4v5FdddxPcpGSq2N_8CD-1794" value="Откуда" style="rounded=1;whiteSpace=wrap;html=1;shadow=0;labelBackgroundColor=none;strokeColor=none;strokeWidth=3;fillColor=#12aab5;fontFamily=Helvetica;fontSize=14;fontColor=#FFFFFF;align=center;spacing=5;fontStyle=1;arcSize=7;perimeterSpacing=2;" vertex="1" parent="1">
          <mxGeometry x="1094" y="177.9999999999999" width="150" height="60" as="geometry" />
        </mxCell>
        <mxCell id="4v5FdddxPcpGSq2N_8CD-1795" value="Время поездки" style="rounded=1;whiteSpace=wrap;html=1;shadow=0;labelBackgroundColor=none;strokeColor=none;strokeWidth=3;fillColor=#12aab5;fontFamily=Helvetica;fontSize=14;fontColor=#FFFFFF;align=center;spacing=5;fontStyle=1;arcSize=7;perimeterSpacing=2;" vertex="1" parent="1">
          <mxGeometry x="867" y="177.9999999999999" width="150" height="60" as="geometry" />
        </mxCell>
        <mxCell id="4v5FdddxPcpGSq2N_8CD-1796" value="" style="edgeStyle=none;rounded=0;jumpStyle=none;html=1;shadow=0;labelBackgroundColor=none;startArrow=none;startFill=0;endArrow=classic;endFill=1;jettySize=auto;orthogonalLoop=1;strokeColor=#2F5B7C;strokeWidth=3;fontFamily=Helvetica;fontSize=16;fontColor=#23445D;spacing=5;entryX=0.5;entryY=1;entryDx=0;entryDy=0;exitX=0.5;exitY=0;exitDx=0;exitDy=0;" edge="1" parent="1" source="4v5FdddxPcpGSq2N_8CD-1781" target="4v5FdddxPcpGSq2N_8CD-1795">
          <mxGeometry relative="1" as="geometry">
            <mxPoint x="801.5376344086026" y="490.9999999999998" as="sourcePoint" />
            <mxPoint x="875.0000000000005" y="430" as="targetPoint" />
            <Array as="points" />
          </mxGeometry>
        </mxCell>
        <mxCell id="4v5FdddxPcpGSq2N_8CD-1797" value="" style="edgeStyle=none;rounded=0;jumpStyle=none;html=1;shadow=0;labelBackgroundColor=none;startArrow=none;startFill=0;endArrow=classic;endFill=1;jettySize=auto;orthogonalLoop=1;strokeColor=#2F5B7C;strokeWidth=3;fontFamily=Helvetica;fontSize=16;fontColor=#23445D;spacing=5;entryX=0;entryY=0.5;entryDx=0;entryDy=0;exitX=0.75;exitY=0;exitDx=0;exitDy=0;" edge="1" parent="1" source="4v5FdddxPcpGSq2N_8CD-1781" target="4v5FdddxPcpGSq2N_8CD-1794">
          <mxGeometry relative="1" as="geometry">
            <mxPoint x="811.5376344086026" y="500.9999999999998" as="sourcePoint" />
            <mxPoint x="885.0000000000005" y="440" as="targetPoint" />
            <Array as="points" />
          </mxGeometry>
        </mxCell>
        <mxCell id="4v5FdddxPcpGSq2N_8CD-1798" value="" style="edgeStyle=none;rounded=0;jumpStyle=none;html=1;shadow=0;labelBackgroundColor=none;startArrow=none;startFill=0;endArrow=classic;endFill=1;jettySize=auto;orthogonalLoop=1;strokeColor=#2F5B7C;strokeWidth=3;fontFamily=Helvetica;fontSize=16;fontColor=#23445D;spacing=5;entryX=0;entryY=0.5;entryDx=0;entryDy=0;exitX=0.953;exitY=0.025;exitDx=0;exitDy=0;exitPerimeter=0;" edge="1" parent="1" source="4v5FdddxPcpGSq2N_8CD-1781" target="4v5FdddxPcpGSq2N_8CD-1793">
          <mxGeometry relative="1" as="geometry">
            <mxPoint x="821.5376344086026" y="510.9999999999998" as="sourcePoint" />
            <mxPoint x="895.0000000000005" y="450" as="targetPoint" />
            <Array as="points" />
          </mxGeometry>
        </mxCell>
        <mxCell id="4v5FdddxPcpGSq2N_8CD-1799" value="" style="edgeStyle=none;rounded=0;jumpStyle=none;html=1;shadow=0;labelBackgroundColor=none;startArrow=none;startFill=0;endArrow=classic;endFill=1;jettySize=auto;orthogonalLoop=1;strokeColor=#2F5B7C;strokeWidth=3;fontFamily=Helvetica;fontSize=16;fontColor=#23445D;spacing=5;entryX=0;entryY=0.5;entryDx=0;entryDy=0;exitX=1;exitY=0.5;exitDx=0;exitDy=0;" edge="1" parent="1" source="4v5FdddxPcpGSq2N_8CD-1781" target="4v5FdddxPcpGSq2N_8CD-1792">
          <mxGeometry relative="1" as="geometry">
            <mxPoint x="831.5376344086026" y="520.9999999999998" as="sourcePoint" />
            <mxPoint x="905.0000000000005" y="460" as="targetPoint" />
            <Array as="points" />
          </mxGeometry>
        </mxCell>
        <mxCell id="4v5FdddxPcpGSq2N_8CD-1800" value="" style="edgeStyle=none;rounded=0;jumpStyle=none;html=1;shadow=0;labelBackgroundColor=none;startArrow=none;startFill=0;endArrow=classic;endFill=1;jettySize=auto;orthogonalLoop=1;strokeColor=#2F5B7C;strokeWidth=3;fontFamily=Helvetica;fontSize=16;fontColor=#23445D;spacing=5;entryX=0;entryY=0.5;entryDx=0;entryDy=0;exitX=1;exitY=1;exitDx=0;exitDy=0;" edge="1" parent="1" source="4v5FdddxPcpGSq2N_8CD-1781" target="4v5FdddxPcpGSq2N_8CD-1791">
          <mxGeometry relative="1" as="geometry">
            <mxPoint x="841.5376344086026" y="530.9999999999998" as="sourcePoint" />
            <mxPoint x="915.0000000000005" y="470" as="targetPoint" />
            <Array as="points" />
          </mxGeometry>
        </mxCell>
        <mxCell id="4v5FdddxPcpGSq2N_8CD-1801" value="Карта города" style="rounded=1;whiteSpace=wrap;html=1;shadow=0;labelBackgroundColor=none;strokeColor=none;strokeWidth=3;fillColor=#e85642;fontFamily=Helvetica;fontSize=14;fontColor=#FFFFFF;align=center;spacing=5;fontStyle=1;arcSize=7;perimeterSpacing=2;" vertex="1" parent="1">
          <mxGeometry x="40" y="434" width="150" height="60" as="geometry" />
        </mxCell>
        <mxCell id="4v5FdddxPcpGSq2N_8CD-1802" value="Форма поиска маршрута" style="rounded=1;whiteSpace=wrap;html=1;shadow=0;labelBackgroundColor=none;strokeColor=none;strokeWidth=3;fillColor=#e85642;fontFamily=Helvetica;fontSize=14;fontColor=#FFFFFF;align=center;spacing=5;fontStyle=1;arcSize=7;perimeterSpacing=2;" vertex="1" parent="1">
          <mxGeometry x="43" y="543" width="150" height="60" as="geometry" />
        </mxCell>
        <mxCell id="4v5FdddxPcpGSq2N_8CD-1803" value="" style="edgeStyle=none;rounded=0;jumpStyle=none;html=1;shadow=0;labelBackgroundColor=none;startArrow=none;startFill=0;endArrow=classic;endFill=1;jettySize=auto;orthogonalLoop=1;strokeColor=#2F5B7C;strokeWidth=3;fontFamily=Helvetica;fontSize=16;fontColor=#23445D;spacing=5;entryX=1;entryY=0.5;entryDx=0;entryDy=0;exitX=0;exitY=0;exitDx=0;exitDy=0;" edge="1" parent="1" source="1753" target="4v5FdddxPcpGSq2N_8CD-1801">
          <mxGeometry relative="1" as="geometry">
            <mxPoint x="531" y="522.9999999999998" as="sourcePoint" />
            <mxPoint x="405" y="522.9999999999998" as="targetPoint" />
          </mxGeometry>
        </mxCell>
        <mxCell id="4v5FdddxPcpGSq2N_8CD-1804" value="" style="edgeStyle=none;rounded=0;jumpStyle=none;html=1;shadow=0;labelBackgroundColor=none;startArrow=none;startFill=0;endArrow=classic;endFill=1;jettySize=auto;orthogonalLoop=1;strokeColor=#2F5B7C;strokeWidth=3;fontFamily=Helvetica;fontSize=16;fontColor=#23445D;spacing=5;entryX=1;entryY=0.5;entryDx=0;entryDy=0;" edge="1" parent="1" source="1753" target="4v5FdddxPcpGSq2N_8CD-1802">
          <mxGeometry relative="1" as="geometry">
            <mxPoint x="541" y="532.9999999999998" as="sourcePoint" />
            <mxPoint x="415" y="532.9999999999998" as="targetPoint" />
          </mxGeometry>
        </mxCell>
        <mxCell id="4v5FdddxPcpGSq2N_8CD-1805" value="Выделение адреса" style="rounded=1;whiteSpace=wrap;html=1;shadow=0;labelBackgroundColor=none;strokeColor=none;strokeWidth=3;fillColor=#e85642;fontFamily=Helvetica;fontSize=14;fontColor=#FFFFFF;align=center;spacing=5;fontStyle=1;arcSize=7;perimeterSpacing=2;" vertex="1" parent="1">
          <mxGeometry x="36" y="302" width="150" height="60" as="geometry" />
        </mxCell>
        <mxCell id="4v5FdddxPcpGSq2N_8CD-1806" value="Работа с картой" style="rounded=1;whiteSpace=wrap;html=1;shadow=0;labelBackgroundColor=none;strokeColor=none;strokeWidth=3;fillColor=#e85642;fontFamily=Helvetica;fontSize=14;fontColor=#FFFFFF;align=center;spacing=5;fontStyle=1;arcSize=7;perimeterSpacing=2;" vertex="1" parent="1">
          <mxGeometry x="-180" y="348" width="150" height="60" as="geometry" />
        </mxCell>
        <mxCell id="4v5FdddxPcpGSq2N_8CD-1807" value="Удаление маршрута" style="rounded=1;whiteSpace=wrap;html=1;shadow=0;labelBackgroundColor=none;strokeColor=none;strokeWidth=3;fillColor=#e85642;fontFamily=Helvetica;fontSize=14;fontColor=#FFFFFF;align=center;spacing=5;fontStyle=1;arcSize=7;perimeterSpacing=2;" vertex="1" parent="1">
          <mxGeometry x="-180" y="445" width="150" height="60" as="geometry" />
        </mxCell>
        <mxCell id="4v5FdddxPcpGSq2N_8CD-1808" value="" style="edgeStyle=none;rounded=0;jumpStyle=none;html=1;shadow=0;labelBackgroundColor=none;startArrow=none;startFill=0;endArrow=classic;endFill=1;jettySize=auto;orthogonalLoop=1;strokeColor=#2F5B7C;strokeWidth=3;fontFamily=Helvetica;fontSize=16;fontColor=#23445D;spacing=5;entryX=0.5;entryY=1;entryDx=0;entryDy=0;" edge="1" parent="1" source="4v5FdddxPcpGSq2N_8CD-1801" target="4v5FdddxPcpGSq2N_8CD-1805">
          <mxGeometry relative="1" as="geometry">
            <mxPoint x="251.00000000000045" y="490.9999999999998" as="sourcePoint" />
            <mxPoint x="202" y="474" as="targetPoint" />
          </mxGeometry>
        </mxCell>
        <mxCell id="4v5FdddxPcpGSq2N_8CD-1809" value="" style="edgeStyle=none;rounded=0;jumpStyle=none;html=1;shadow=0;labelBackgroundColor=none;startArrow=none;startFill=0;endArrow=classic;endFill=1;jettySize=auto;orthogonalLoop=1;strokeColor=#2F5B7C;strokeWidth=3;fontFamily=Helvetica;fontSize=16;fontColor=#23445D;spacing=5;entryX=1;entryY=0.5;entryDx=0;entryDy=0;exitX=0;exitY=0;exitDx=0;exitDy=0;" edge="1" parent="1" source="4v5FdddxPcpGSq2N_8CD-1801" target="4v5FdddxPcpGSq2N_8CD-1806">
          <mxGeometry relative="1" as="geometry">
            <mxPoint x="261.00000000000045" y="500.9999999999998" as="sourcePoint" />
            <mxPoint x="212" y="484" as="targetPoint" />
          </mxGeometry>
        </mxCell>
        <mxCell id="4v5FdddxPcpGSq2N_8CD-1810" value="" style="edgeStyle=none;rounded=0;jumpStyle=none;html=1;shadow=0;labelBackgroundColor=none;startArrow=none;startFill=0;endArrow=classic;endFill=1;jettySize=auto;orthogonalLoop=1;strokeColor=#2F5B7C;strokeWidth=3;fontFamily=Helvetica;fontSize=16;fontColor=#23445D;spacing=5;entryX=1;entryY=0.5;entryDx=0;entryDy=0;" edge="1" parent="1" source="4v5FdddxPcpGSq2N_8CD-1801" target="4v5FdddxPcpGSq2N_8CD-1807">
          <mxGeometry relative="1" as="geometry">
            <mxPoint x="271.00000000000045" y="510.9999999999998" as="sourcePoint" />
            <mxPoint x="222" y="494" as="targetPoint" />
          </mxGeometry>
        </mxCell>
        <mxCell id="4v5FdddxPcpGSq2N_8CD-1811" value="Поля ввода" style="rounded=1;whiteSpace=wrap;html=1;shadow=0;labelBackgroundColor=none;strokeColor=none;strokeWidth=3;fillColor=#e85642;fontFamily=Helvetica;fontSize=14;fontColor=#FFFFFF;align=center;spacing=5;fontStyle=1;arcSize=7;perimeterSpacing=2;" vertex="1" parent="1">
          <mxGeometry x="-176" y="543" width="150" height="60" as="geometry" />
        </mxCell>
        <mxCell id="4v5FdddxPcpGSq2N_8CD-1812" value="Очистка" style="rounded=1;whiteSpace=wrap;html=1;shadow=0;labelBackgroundColor=none;strokeColor=none;strokeWidth=3;fillColor=#e85642;fontFamily=Helvetica;fontSize=14;fontColor=#FFFFFF;align=center;spacing=5;fontStyle=1;arcSize=7;perimeterSpacing=2;" vertex="1" parent="1">
          <mxGeometry x="-176" y="655" width="150" height="60" as="geometry" />
        </mxCell>
        <mxCell id="4v5FdddxPcpGSq2N_8CD-1813" value="Режим выбора" style="rounded=1;whiteSpace=wrap;html=1;shadow=0;labelBackgroundColor=none;strokeColor=none;strokeWidth=3;fillColor=#e85642;fontFamily=Helvetica;fontSize=14;fontColor=#FFFFFF;align=center;spacing=5;fontStyle=1;arcSize=7;perimeterSpacing=2;" vertex="1" parent="1">
          <mxGeometry x="43" y="652" width="150" height="60" as="geometry" />
        </mxCell>
        <mxCell id="4v5FdddxPcpGSq2N_8CD-1814" value="" style="edgeStyle=none;rounded=0;jumpStyle=none;html=1;shadow=0;labelBackgroundColor=none;startArrow=none;startFill=0;endArrow=classic;endFill=1;jettySize=auto;orthogonalLoop=1;strokeColor=#2F5B7C;strokeWidth=3;fontFamily=Helvetica;fontSize=16;fontColor=#23445D;spacing=5;entryX=1;entryY=0.5;entryDx=0;entryDy=0;" edge="1" parent="1" source="4v5FdddxPcpGSq2N_8CD-1802" target="4v5FdddxPcpGSq2N_8CD-1811">
          <mxGeometry relative="1" as="geometry">
            <mxPoint x="262.4000000000001" y="555" as="sourcePoint" />
            <mxPoint x="205" y="582.9999999999998" as="targetPoint" />
          </mxGeometry>
        </mxCell>
        <mxCell id="4v5FdddxPcpGSq2N_8CD-1815" value="" style="edgeStyle=none;rounded=0;jumpStyle=none;html=1;shadow=0;labelBackgroundColor=none;startArrow=none;startFill=0;endArrow=classic;endFill=1;jettySize=auto;orthogonalLoop=1;strokeColor=#2F5B7C;strokeWidth=3;fontFamily=Helvetica;fontSize=16;fontColor=#23445D;spacing=5;entryX=1;entryY=0;entryDx=0;entryDy=0;exitX=0;exitY=1;exitDx=0;exitDy=0;" edge="1" parent="1" source="4v5FdddxPcpGSq2N_8CD-1802" target="4v5FdddxPcpGSq2N_8CD-1812">
          <mxGeometry relative="1" as="geometry">
            <mxPoint x="272.4000000000001" y="565" as="sourcePoint" />
            <mxPoint x="215" y="592.9999999999998" as="targetPoint" />
          </mxGeometry>
        </mxCell>
        <mxCell id="4v5FdddxPcpGSq2N_8CD-1816" value="" style="edgeStyle=none;rounded=0;jumpStyle=none;html=1;shadow=0;labelBackgroundColor=none;startArrow=none;startFill=0;endArrow=classic;endFill=1;jettySize=auto;orthogonalLoop=1;strokeColor=#2F5B7C;strokeWidth=3;fontFamily=Helvetica;fontSize=16;fontColor=#23445D;spacing=5;entryX=0.5;entryY=0;entryDx=0;entryDy=0;exitX=0.5;exitY=1;exitDx=0;exitDy=0;" edge="1" parent="1" source="4v5FdddxPcpGSq2N_8CD-1802" target="4v5FdddxPcpGSq2N_8CD-1813">
          <mxGeometry relative="1" as="geometry">
            <mxPoint x="282.4000000000001" y="575" as="sourcePoint" />
            <mxPoint x="225" y="602.9999999999998" as="targetPoint" />
          </mxGeometry>
        </mxCell>
      </root>
    </mxGraphModel>
  </diagram>
</mxfile>
